<mxfile host="app.diagrams.net" modified="2020-08-05T00:38:23.895Z" agent="5.0 (Windows NT 10.0; Win64; x64) AppleWebKit/537.36 (KHTML, like Gecko) Chrome/84.0.4147.105 Safari/537.36" etag="lFeAfpzSv4OBvJ0JMq2j" version="13.5.9" type="github">
  <diagram id="w4ckNTq4z6c4Y9hsVM5p" name="Page-1">
    <mxGraphModel dx="1422" dy="794" grid="1" gridSize="10" guides="1" tooltips="1" connect="1" arrows="1" fold="1" page="1" pageScale="1" pageWidth="827" pageHeight="1169" math="0" shadow="0">
      <root>
        <mxCell id="0" />
        <mxCell id="1" parent="0" />
        <mxCell id="COqozxz7cPFSiQ9tJKt5-1" value="LuaBehaviour" style="html=1;" parent="1" vertex="1">
          <mxGeometry x="470" y="560" width="110" height="50" as="geometry" />
        </mxCell>
        <mxCell id="COqozxz7cPFSiQ9tJKt5-2" value="View" style="html=1;" parent="1" vertex="1">
          <mxGeometry x="320" y="380" width="110" height="50" as="geometry" />
        </mxCell>
        <mxCell id="COqozxz7cPFSiQ9tJKt5-3" value="«interface»&lt;br&gt;&lt;b&gt;IView&lt;/b&gt;" style="html=1;" parent="1" vertex="1">
          <mxGeometry x="320" y="240" width="110" height="50" as="geometry" />
        </mxCell>
        <mxCell id="COqozxz7cPFSiQ9tJKt5-4" value="Extends" style="endArrow=block;endSize=16;endFill=0;html=1;" parent="1" source="COqozxz7cPFSiQ9tJKt5-1" target="COqozxz7cPFSiQ9tJKt5-2" edge="1">
          <mxGeometry width="160" relative="1" as="geometry">
            <mxPoint x="320" y="510" as="sourcePoint" />
            <mxPoint x="480" y="510" as="targetPoint" />
          </mxGeometry>
        </mxCell>
        <mxCell id="COqozxz7cPFSiQ9tJKt5-5" value="Extends" style="endArrow=block;endSize=16;endFill=0;html=1;" parent="1" source="COqozxz7cPFSiQ9tJKt5-2" target="COqozxz7cPFSiQ9tJKt5-3" edge="1">
          <mxGeometry width="160" relative="1" as="geometry">
            <mxPoint x="329.9968421052631" y="410" as="sourcePoint" />
            <mxPoint x="300.52315789473687" y="270" as="targetPoint" />
          </mxGeometry>
        </mxCell>
        <mxCell id="COqozxz7cPFSiQ9tJKt5-6" value="Base&lt;br&gt;（一些管理器的实例）" style="html=1;" parent="1" vertex="1">
          <mxGeometry x="470" y="380" width="110" height="50" as="geometry" />
        </mxCell>
        <mxCell id="COqozxz7cPFSiQ9tJKt5-8" value="Extends" style="endArrow=block;endSize=16;endFill=0;html=1;" parent="1" source="COqozxz7cPFSiQ9tJKt5-1" target="COqozxz7cPFSiQ9tJKt5-6" edge="1">
          <mxGeometry width="160" relative="1" as="geometry">
            <mxPoint x="369.7368421052631" y="580" as="sourcePoint" />
            <mxPoint x="340.2631578947369" y="440" as="targetPoint" />
          </mxGeometry>
        </mxCell>
        <mxCell id="COqozxz7cPFSiQ9tJKt5-9" value="MonoBehaviour" style="verticalAlign=top;align=left;spacingTop=8;spacingLeft=2;spacingRight=12;shape=cube;size=10;direction=south;fontStyle=4;html=1;" parent="1" vertex="1">
          <mxGeometry x="470" y="230" width="110" height="60" as="geometry" />
        </mxCell>
        <mxCell id="COqozxz7cPFSiQ9tJKt5-10" value="Extends" style="endArrow=block;endSize=16;endFill=0;html=1;" parent="1" source="COqozxz7cPFSiQ9tJKt5-6" target="COqozxz7cPFSiQ9tJKt5-9" edge="1">
          <mxGeometry width="160" relative="1" as="geometry">
            <mxPoint x="389.47368421052624" y="580" as="sourcePoint" />
            <mxPoint x="470.52631578947376" y="440" as="targetPoint" />
          </mxGeometry>
        </mxCell>
        <mxCell id="COqozxz7cPFSiQ9tJKt5-11" value="这个框架是用&lt;br&gt;字典来保存LuaFunction，&lt;br&gt;网上那些就是直接定义的" style="shape=note;whiteSpace=wrap;html=1;size=14;verticalAlign=top;align=left;spacingTop=-6;" parent="1" vertex="1">
          <mxGeometry x="630" y="560" width="150" height="70" as="geometry" />
        </mxCell>
        <mxCell id="efUb89qP92FBL7xO7-Fa-1" value="&lt;h1&gt;lua间接添加组件&lt;/h1&gt;&lt;p&gt;一般是通过调C#来加Unity组件，原来的是在加载预制体的基础上添加了一个LuaBehaviour的C#组件。如果想自定义添加组件（这里先针对UI），在PanelManager写上对应的方法，传入相关的transform和回调。&lt;/p&gt;" style="text;html=1;strokeColor=none;fillColor=none;spacing=5;spacingTop=-20;whiteSpace=wrap;overflow=hidden;rounded=0;" vertex="1" parent="1">
          <mxGeometry x="70" y="680" width="280" height="120" as="geometry" />
        </mxCell>
        <mxCell id="efUb89qP92FBL7xO7-Fa-3" value="Use" style="endArrow=open;endSize=12;dashed=1;html=1;" edge="1" parent="1" source="efUb89qP92FBL7xO7-Fa-5" target="efUb89qP92FBL7xO7-Fa-4">
          <mxGeometry width="160" relative="1" as="geometry">
            <mxPoint x="284" y="1120" as="sourcePoint" />
            <mxPoint x="294" y="1050" as="targetPoint" />
          </mxGeometry>
        </mxCell>
        <mxCell id="efUb89qP92FBL7xO7-Fa-4" value="&lt;p style=&quot;margin: 0px ; margin-top: 4px ; text-align: center&quot;&gt;&lt;b&gt;LuaHelper.cs&lt;/b&gt;&lt;/p&gt;&lt;hr size=&quot;1&quot;&gt;&lt;div style=&quot;height: 2px&quot;&gt;&amp;nbsp;静态类&lt;/div&gt;" style="verticalAlign=top;align=left;overflow=fill;fontSize=12;fontFamily=Helvetica;html=1;" vertex="1" parent="1">
          <mxGeometry x="224" y="970" width="140" height="60" as="geometry" />
        </mxCell>
        <mxCell id="efUb89qP92FBL7xO7-Fa-5" value="&lt;p style=&quot;margin: 0px ; margin-top: 4px ; text-align: center&quot;&gt;&lt;b&gt;xxx.lua&lt;/b&gt;&lt;/p&gt;&lt;hr size=&quot;1&quot;&gt;&lt;div style=&quot;height: 2px&quot;&gt;&amp;nbsp;panelMgr:CreatePanel(...)&lt;/div&gt;" style="verticalAlign=top;align=left;overflow=fill;fontSize=12;fontFamily=Helvetica;html=1;" vertex="1" parent="1">
          <mxGeometry x="214" y="1130" width="160" height="60" as="geometry" />
        </mxCell>
        <mxCell id="efUb89qP92FBL7xO7-Fa-10" value="Use" style="endArrow=open;endSize=12;dashed=1;html=1;" edge="1" parent="1" source="efUb89qP92FBL7xO7-Fa-4" target="efUb89qP92FBL7xO7-Fa-7">
          <mxGeometry width="160" relative="1" as="geometry">
            <mxPoint x="304" y="1140" as="sourcePoint" />
            <mxPoint x="304" y="1040" as="targetPoint" />
          </mxGeometry>
        </mxCell>
        <mxCell id="efUb89qP92FBL7xO7-Fa-6" value="PanelManaer.cs" style="swimlane;fontStyle=1;align=center;verticalAlign=top;childLayout=stackLayout;horizontal=1;startSize=26;horizontalStack=0;resizeParent=1;resizeParentMax=0;resizeLast=0;collapsible=1;marginBottom=0;" vertex="1" parent="1">
          <mxGeometry x="350" y="860" width="160" height="52" as="geometry" />
        </mxCell>
        <mxCell id="efUb89qP92FBL7xO7-Fa-7" value="+ CreatePanel: type" style="text;strokeColor=none;fillColor=none;align=left;verticalAlign=top;spacingLeft=4;spacingRight=4;overflow=hidden;rotatable=0;points=[[0,0.5],[1,0.5]];portConstraint=eastwest;" vertex="1" parent="efUb89qP92FBL7xO7-Fa-6">
          <mxGeometry y="26" width="160" height="26" as="geometry" />
        </mxCell>
      </root>
    </mxGraphModel>
  </diagram>
</mxfile>
